<svg xmlns="http://www.w3.org/2000/svg" viewBox="0 0 232.1 258.7" fill="currentColor">
  <path d="M91.2 190C46 178.8 7.8 151 7.8 100.2 7.8 46 54.3 6.4 107 6.4c50 0 95.7 36.1 95.7 88.5 0 36.1-22.4 66.6-53.4 83.4-25.7 13.9-43.8 8-66 23v.5c3.2 0 6.4-.3 9.3-.5 37.4 0 61.7 22.7 97.3 22.7 28.1 0 32.6-17.1 35-17.1s1.9 5.1 1.9 7c0 23.3-22.2 39.2-45.1 39.2-44.6 0-65.8-45.3-97.8-45.3-15.8 0-23.8 15.4-33.9 14.5-2.9-.2-5.2-2.7-5.1-5.6 0-6.4 15-10.4 19.5-11.5L91.2 190zm-50-91.9c0 40.4 16 85.3 63.9 85.3 44.9 0 64.1-44.4 64.1-83.4 0-38.8-16.3-86.3-62.5-86.3-47.9-.1-65.5 43.5-65.5 84.4z" />
</svg>
