<svg version="1.1" id="Ebene_1" xmlns="http://www.w3.org/2000/svg" x="0" y="0" viewBox="0 0 324.9 58.3" xml:space="preserve" fill="currentColor">
  <path class="st0" d="M62.1 6.2c-10.3 0-17.9 9-17.9 18.9 0 10.2 8.1 17.1 18 17.1 5.5.2 10.8-2.3 14.1-6.8l-1.7-1.7c-2.4 3.2-6 5.9-10 5.9-8.5 0-12.5-8.4-12.5-16l.3-3.8h22.8c.8 0 2 .3 2-.7.1-8.6-7.3-12.9-15.1-12.9zM66 17.7H52.9c1-5.2 3.3-9.7 9.3-9.7 5 0 7.7 3.2 7.7 8.1 0 2-2.6 1.6-3.9 1.6zm39.1-11.5c-5.5 0-9.4 3.2-11.5 8h-.2c.1-2.7-.2-5.4-1-8-3.5.8-7 2.2-10.7 2.5v1.6c2.5 0 4.5-.3 5.2 2.5.6 1.8.5 7.5.5 9.6v9.8c0 5.2.4 7.2-5.6 7.5v1.6c3.1-.1 6.2-.3 9.3-.3 3 .1 6.1.2 9.1.3v-1.6c-6.7-.3-6-2.2-6-8v-7.9c0-3.7 0-7.5 1.8-10.8 1.2-2 3.8-4 6.2-4 3.1 0 2.4 4.1 5.7 4.1 1.5-.1 2.8-1.3 2.8-2.9.1-2.9-3.1-4-5.6-4zm45.1 25.5V17.1c0-7.5-4.3-11-11.8-11-5.6 0-9.9 2.3-12.7 7.2h-.2l-1-7.2c-3.9.7-6.8 2-11 2.5v1.6c2.5 0 4.7-.3 5.3 2.5.4 1.8.4 7.4.4 9.6v9.8c0 5.2.4 7.2-5.6 7.5v1.6c3.1-.1 6.1-.2 9.2-.3l8.7.3v-1.5c-6.3-.4-5.6-2.8-5.6-8V19.3c0-5.8 4-10.6 10.2-10.6 7.6 0 7.3 7.8 7.3 13.3v10.2c0 5.2.4 7.2-5.6 7.5v1.6c3.1-.1 6.1-.2 9.2-.3l8.7.3v-1.6c-6.1-.4-5.5-2.8-5.5-8zm40.2 6.9c-3.1 0-2.8-5.9-2.8-7.9V17.6c0-9.1-4.1-11.4-12.9-11.4-4.1 0-14.6 1.1-14.6 7 0 1.5 1.2 2.8 2.7 2.9h.3c2 0 3-1.7 3.2-3.5.2-4.2 3.5-4.5 7.5-4.5 6.5 0 7 3.8 7 9.2 0 .9.2 1.9-.6 2.3l-7.9 3.8c-5.1 2.3-12.6 5.2-12.6 11.8 0 4.5 4.1 7 8.3 7 4.9 0 9.5-2.6 13.3-5.6.7 3.2 3.5 5.5 6.8 5.6 2.9 0 5.9-2.7 7.1-5.3l-1.5-.8c-.9 1-1.7 2.5-3.3 2.5zm-9.5-4.2c-2.2 2.2-5.6 4.5-8.7 4.5-3.2 0-5.1-2.8-5.1-5.7 0-6.4 9-9.5 13.8-11.8v13zM317.5 36c-.9 1.1-1.7 2.5-3.3 2.5-3.1 0-2.8-5.9-2.8-7.9v-13c0-9.1-4-11.4-12.9-11.4-4 0-14.6 1.1-14.6 7 0 1.5 1.2 2.8 2.7 2.9h.3c2 0 3-1.8 3.2-3.5.2-4.2 3.5-4.5 7.5-4.5 6.5 0 7 3.8 7 9.2 0 .9.2 1.9-.6 2.3l-7.9 3.8c-5.1 2.3-12.6 5.2-12.6 11.8 0 4.5 4 7 8.3 7 4.9 0 9.5-2.6 13.3-5.6.7 3.2 3.5 5.5 6.8 5.6 2.9 0 5.9-2.7 7.1-5.3l-1.5-.9zm-12.8-1.6c-2.2 2.2-5.7 4.6-8.7 4.6-3.2 0-5.1-2.8-5.1-5.7 0-6.4 9-9.5 13.8-11.8v12.9zm-31.5-2.1V6.8c-2 .2-4.1.2-6.2.4-2.2-.2-4.4-.2-6.6-.4v1.6c6.5.9 6 2.8 6 8.8v10.6c0 6.1-4.6 11.8-10.9 11.8s-6.6-6.4-6.6-11V6.9c-2 .1-4.1.2-6.2.3l-6.6-.3v1.5c6.5.9 6 2.8 6 8.8v13.6c0 7 2.9 11.3 11 11.3 5.4-.1 10.3-2.9 13.3-7.5l1.7 7.5 11-2.8v-1.8c-1 .1-2.1.2-3 .2-2.9 0-2.9-3.2-2.9-5.4zm-32.8 13c-.5 0-1.4 3.4-6.9 3.4-7.1 0-11.9-4.5-19.3-4.5-.6 0-1.2.1-1.9.1v-.1c1.9-1.2 4.1-2 6.3-2.4 9-1.3 16.2-8.2 16.2-17.9 0-10.2-9.3-17.9-19.1-17.9-9.7 0-19.1 7.4-19.1 17.6 0 9.9 7.8 17.5 17.3 18.3l-5.4 3c-.9.2-3.9 1-3.9 2.3-.1.5.3 1 .9 1.1h.1c1.4 0 3.6-2.8 6.7-2.8 6.4 0 10.6 8.8 19.4 8.8 4.6 0 8.9-3.2 8.9-7.8.2-.1.3-1.1-.2-1.2zM204.6 24c0-6.9 2.1-16 10.8-16 9.4 0 11.5 8.9 11.5 16.5 0 7.1-2.1 15.8-10.8 15.8-9.3 0-11.5-8.7-11.5-16.3zM10 16.6c0-1.7 0-5.7-.5-7.1C8.9 7.6 6.7 7.6 5 7.6V5.8c2.6 0 6.4.2 9 .2 2.1-.1 4.2-.2 6.4-.2 5.6-.2 15.7 1.5 15.7 8.6 0 4.9-5.1 7-9.2 8.2v.1c3 .3 6.9.8 9 2.2 2.5 1.6 4.1 4.4 4.1 7.4-.1 3.4-2.1 6.5-5.2 8-2.9 1.5-9.2 1.5-12.4 1.5-2.4 0-4.7-.2-7-.2-3 .1-7.4.2-10.4.2V40c1.7 0 4 0 4.6-1.8.5-1.5.5-5.4.5-7.1L10 16.6zm6.9 5.2h1.7c2.4 0 5.6.1 7.8-1.1 2.3-1.5 2.7-3.4 2.7-5.9 0-4.8-3.9-7.1-8.7-7.1-.7 0-2.7-.1-3.2.3s-.3 1.8-.3 2.2v11.6zm0 9.3c0 1.8 0 5.1.6 6.7.9 2.3 3.6 2.3 5.6 2.3 5.3 0 9-3 9-8.1 0-3.1-1.1-5.3-3.9-6.8-2.5-1.3-7-1.1-9.7-1.1h-1.7l.1 7z"/>
</svg>
