<svg xmlns="http://www.w3.org/2000/svg" viewBox="0 0 45.04 43.42" fill="#fff">
  <g>
    <path d="M43.2 3.44a8 8 0 10-1.51 11.28A8 8 0 0043.2 3.44zM32.12 11.9C29.5 8.47 30 3.68 31.84 2.07c-.39.84 0 4.78 2.54 8.06s6.4 4.77 7.19 4.6c-2 1.43-6.82.63-9.46-2.83zm9.61 2.7c.38-.71 0-4.81-2.55-8.14S33 1.73 32.08 1.89c2-1.39 6.78-.58 9.41 2.85s2.14 8.28.24 9.86zM.34 40.77a1.36 1.36 0 01.29-1.91A14.55 14.55 0 0110.35 36 32.18 32.18 0 0120 38.38a30.31 30.31 0 008.84 2.18 12.06 12.06 0 008-2.35 1.36 1.36 0 011.89.39 1.38 1.38 0 01-.28 1.81 14.55 14.55 0 01-8.87 2.9h-.84a32.68 32.68 0 01-9.68-2.36 29.8 29.8 0 00-8.86-2.22 12 12 0 00-8 2.35 1.36 1.36 0 01-1.91-.29zm38.12-6.35a14.45 14.45 0 01-8.87 2.9h-.84A32.66 32.66 0 0119.07 35c-.85-.33-1.75-.66-2.67-1a24.24 24.24 0 00-6.19-1.26 12.26 12.26 0 00-4.73.63 11.92 11.92 0 00-3.23 1.71 1.37 1.37 0 01-1.62-2.2 25.76 25.76 0 015.73-2.66l8.93-9.07-2.94-2.78-3.61 1.78a1.86 1.86 0 01-1.65-3.34l4.77-2.37a1.86 1.86 0 012.1.31l4.41 4.14 6.53 6.36 2.4 2.27 2.48-2.3A1.86 1.86 0 0132.33 28l-3.76 3.48a1.87 1.87 0 01-2.54 0L22.36 28l-3.8 3.89c.52.18 1 .37 1.51.56a30.46 30.46 0 008.85 2.18 12 12 0 008-2.35 1.37 1.37 0 011.62 2.2z"/>
  </g>
  <circle cx="24.83" cy="17.5" r="4.38"/>
</svg>
