<svg xmlns="http://www.w3.org/2000/svg" viewBox="0 0 52.89 41.17" fill="#fff">
  <g>
    <path d="M43 40.92H2.13a1.93 1.93 0 010-3.86l37.26-1.34 9.38-27a1.93 1.93 0 013.75.9l-7.64 29.85A1.94 1.94 0 0143 40.92zm-4.47-24.71l-4.25 1.42c-.75.25-3.43-2.62-3.83-3.3l-1.6 6.86 3 2.61a2.2 2.2 0 011 2.18l-1.33 6.1a2.19 2.19 0 01-4.33-.66l1.12-4.69-2.41-2.06-.23.93a25.93 25.93 0 01-1.74 3.55l-4.48 4.42a2.19 2.19 0 11-3.33-2.84l4.11-4L22.32 22c-.58-.63-.09-1.68-.05-2.83L23.36 12l-2.86 2.43-.5 3.72a1.66 1.66 0 01-1.66 1.44h-.24a1.68 1.68 0 01-1.43-1.9l.64-4.56a9.6 9.6 0 012.31-2.92l3.8-2a1.65 1.65 0 011.21-.14l6.59 1.71a1.68 1.68 0 011.12 1L34.71 14l2.75-1a1.69 1.69 0 011.07 3.2z"/>
  </g>
  <circle cx="29.3" cy="3.93" r="3.56"/>
</svg>
