<svg xmlns="http://www.w3.org/2000/svg" viewBox="0 0 52.9 48.6" fill="#fff">
  <path d="M37.2 10.2c.1.1.3.2.5.2s.4-.1.6-.3c0-.1 2.7-3.2.7-5.8-1.1-1.4-.3-2.3-.1-2.4.3-.3.4-.7.1-1.1-.3-.3-.7-.3-1-.1-.8.6-1.8 2.4-.1 4.5 1.3 1.6-.7 4-.7 4-.3.3-.3.8 0 1 0 .1 0 .1 0 0zM41.5 9.2c-.3.3-.2.8.1 1.1.1.1.3.2.5.2s.4-.1.6-.3c.1-.1 2.8-3.3.8-5.9-1.1-1.4-.3-2.3-.1-2.4.3-.3.4-.7.1-1.1s-.7-.4-1.1-.1c-.8.6-1.8 2.4-.1 4.5 1.3 1.6-.7 4-.8 4zM46.3 9.2c-.3.3-.3.8 0 1 .1.1.3.2.5.2s.4-.1.6-.3c.1-.1 2.8-3.3.8-5.9-1.2-1.4-.3-2.2-.1-2.3.3-.2.4-.7.2-1s-.7-.4-1-.2l-.1.1c-.8.6-1.8 2.4-.1 4.5 1.2 1.5-.8 3.9-.8 3.9zM52.6 43.2c0 2.6-11.6 4.8-25.9 4.8S.8 45.8.8 43.2c0-1.1 3-2.8 5.1-2.8.7.1-.4.6-.5 1 0 2.6 9.6 4.7 21.3 4.7S48 44 48 41.4c0-.4-.9-.8-.5-1 3.1.4 5.1 1.7 5.1 2.8zm-12-5.2c0 2.2-6.2 4-13.9 4s-13.9-1.8-13.9-4c0-.4.2-.7.5-1-2.6.7-4.2 1.6-4.2 2.6 0 2.2 7.9 4 17.6 4s17.6-1.8 17.6-4L40.6 38zm-13.9 1.6c3.5 0 7-.6 10.3-1.9l-3.7-8.2c-.1-.5-.4-1-.8-1.3-.4-.3-.9-.5-1.4-.5h-8.9c-.5 0-1 .2-1.4.5s-.7.8-.8 1.3l-3.7 8.2c3.4 1.2 6.9 1.9 10.4 1.9zm25.9 2.6l-12-4.1c0 2.2-6.2 4-13.9 4s-13.9-1.8-13.9-4c0-.4.7-.9.5-1-.9-.3-4.2 1.6-4.2 2.6 0 2.2 7.9 4 17.6 4s17.7-1.8 17.6-4c0-.4-3.7-2.4-3.7-1.6l12 4.1zM31.9 15.3l.2.2c.7.8 1.3 1.6 1.7 2.6.3-.4.5-.8.6-1.3l-2.5-1.5zm1 3.4c-.7-1.2-1.6-2.3-2.7-3.1-.8-.6-1.7-1-2.6-1.3H27c-4.3.5-6.8 4.5-6.8 4.6v.7c-.1 3.6 2.7 6.7 6.3 6.8s6.7-2.7 6.8-6.3v-.5-.2l-.4-.7zm-12.3-11c1.4-.9 3-1.5 4.7-1.7H27c1.9 0 3.8.2 5.5.8-.3-1.1-1-1.1-2-1.7-2-1.1-6.2-1.3-8.5.3-1.2 1-2 1.4-2.2 3 .2-.2.5-.4.8-.7zm-2.1 4.6c-.4 1.7-.1 3.5.8 5.1 0 0 2.7-4.4 7.5-5 .4 0 .7-.1 1.1 0 2.4.1 4.7.8 6.7 2.3.7-2 .4-3.2-.9-4.9-.9-1.4-4-1.8-6.7-1.8-.6 0-1.1 0-1.6.1-2.7.1-6.4 2.5-6.9 4.2z"/>
</svg>
